# MagicaVoxel @ Ephtracy

# group
o hull

# material
mtllib Raptor.mtl
usemtl palette

# normals
vn -1 0 0
vn 1 0 0
vn 0 0 1
vn 0 0 -1
vn 0 -1 0
vn 0 1 0

# texcoords
vt 0.0175781 0.5
vt 0.0722656 0.5
vt 0.119141 0.5
vt 0.123047 0.5
vt 0.248047 0.5

# verts
v -0.8 0 0.8
v -0.8 0 0.3
v -0.8 0 -0.3
v -0.8 0 -0.8
v -0.8 0.1 0.7
v -0.8 0.1 0.3
v -0.8 0.1 0.2
v -0.8 0.1 -0.2
v -0.8 0.1 -0.3
v -0.8 0.1 -0.7
v -0.8 0.5 0.8
v -0.8 0.5 0.7
v -0.8 0.5 0.3
v -0.8 0.5 -0.3
v -0.8 0.5 -0.7
v -0.8 0.5 -0.8
v -0.8 0.6 0.7
v -0.8 0.6 0.2
v -0.8 0.6 -0.2
v -0.8 0.6 -0.7
v -0.7 0.1 0.7
v -0.7 0.1 0.6
v -0.7 0.1 0.5
v -0.7 0.1 0.3
v -0.7 0.1 0.2
v -0.7 0.1 -0.2
v -0.7 0.1 -0.3
v -0.7 0.1 -0.5
v -0.7 0.1 -0.6
v -0.7 0.1 -0.7
v -0.7 0.3 0.5
v -0.7 0.3 0.3
v -0.7 0.3 -0.3
v -0.7 0.3 -0.5
v -0.7 0.4 0.6
v -0.7 0.4 0.3
v -0.7 0.4 -0.3
v -0.7 0.4 -0.6
v -0.7 0.5 0.7
v -0.7 0.5 0.3
v -0.7 0.5 -0.3
v -0.7 0.5 -0.7
v -0.7 0.6 0.2
v -0.7 0.6 -0.2
v -0.6 0 0.2
v -0.6 0 -0.2
v -0.6 0.1 0.2
v -0.6 0.1 -0.2
v 0.3 0 0.2
v 0.3 0 -0.2
v 0.3 0.1 0.2
v 0.3 0.1 -0.2
v 0 0 0.2
v 0 0 -0.2
v 0 0.1 0.2
v 0 0.1 -0.2
v 0.1 0.5 0.2
v 0.1 0.5 -0.2
v 0.1 0.6 0.2
v 0.1 0.6 -0.2
v 0.2 0.1 0.7
v 0.2 0.1 0.6
v 0.2 0.1 0.5
v 0.2 0.1 0.3
v 0.2 0.1 -0.3
v 0.2 0.1 -0.5
v 0.2 0.1 -0.6
v 0.2 0.1 -0.7
v 0.2 0.3 0.5
v 0.2 0.3 0.3
v 0.2 0.3 -0.3
v 0.2 0.3 -0.5
v 0.2 0.4 0.6
v 0.2 0.4 0.3
v 0.2 0.4 -0.3
v 0.2 0.4 -0.6
v 0.2 0.5 0.7
v 0.2 0.5 0.3
v 0.2 0.5 -0.3
v 0.2 0.5 -0.7
v 0.3 0 0.8
v 0.3 0 0.3
v 0.3 0 -0.3
v 0.3 0 -0.8
v 0.3 0.1 0.7
v 0.3 0.1 0.3
v 0.3 0.1 0.2
v 0.3 0.1 -0.2
v 0.3 0.1 -0.3
v 0.3 0.1 -0.7
v 0.3 0.5 0.8
v 0.3 0.5 0.7
v 0.3 0.5 0.3
v 0.3 0.5 0.2
v 0.3 0.5 -0.2
v 0.3 0.5 -0.3
v 0.3 0.5 -0.7
v 0.3 0.5 -0.8
v 0.3 0.6 0.7
v 0.3 0.6 0.2
v 0.3 0.6 -0.2
v 0.3 0.6 -0.7
v 0.7 0.4 0.2
v 0.7 0.4 -0.2
v 0.7 0.5 0.2
v 0.7 0.5 -0.2
v 0.8 0 0.2
v 0.8 0 -0.2
v 0.8 0.2 0.2
v 0.8 0.2 -0.2
v 0.8 0.4 0.2
v 0.8 0.4 -0.2
v -0.8 0 0.8
v -0.8 0.5 0.8
v 0.3 0 0.8
v 0.3 0.5 0.8
v -0.8 0.5 0.7
v -0.8 0.6 0.7
v 0.3 0.5 0.7
v 0.3 0.6 0.7
v -0.8 0.1 0.3
v -0.8 0.5 0.3
v -0.7 0.1 0.3
v -0.7 0.3 0.3
v -0.7 0.4 0.3
v -0.7 0.5 0.3
v 0.2 0.1 0.3
v 0.2 0.3 0.3
v 0.2 0.4 0.3
v 0.2 0.5 0.3
v 0.3 0.1 0.3
v 0.3 0.5 0.3
v -0.6 0 0.2
v -0.6 0.1 0.2
v 0 0 0.2
v 0 0.1 0.2
v 0.3 0 0.2
v 0.3 0.1 0.2
v 0.3 0.5 0.2
v 0.4 0.4 0.2
v 0.4 0.5 0.2
v 0.5 0.3 0.2
v 0.5 0.4 0.2
v 0.7 0.2 0.2
v 0.7 0.3 0.2
v 0.7 0.4 0.2
v 0.7 0.5 0.2
v 0.8 0 0.2
v 0.8 0.2 0.2
v 0.8 0.4 0.2
v -0.8 0.1 -0.2
v -0.8 0.6 -0.2
v -0.7 0.1 -0.2
v -0.7 0.6 -0.2
v 0.1 0.5 -0.2
v 0.1 0.6 -0.2
v 0.3 0.5 -0.2
v 0.3 0.6 -0.2
v -0.8 0 -0.3
v -0.8 0.1 -0.3
v 0.3 0 -0.3
v 0.3 0.1 -0.3
v -0.8 0.1 -0.7
v -0.8 0.5 -0.7
v -0.7 0.1 -0.7
v -0.7 0.5 -0.7
v 0.2 0.1 -0.7
v 0.2 0.5 -0.7
v 0.3 0.1 -0.7
v 0.3 0.5 -0.7
v -0.8 0.1 0.7
v -0.8 0.5 0.7
v -0.7 0.1 0.7
v -0.7 0.5 0.7
v 0.2 0.1 0.7
v 0.2 0.5 0.7
v 0.3 0.1 0.7
v 0.3 0.5 0.7
v -0.8 0 0.3
v -0.8 0.1 0.3
v 0.3 0 0.3
v 0.3 0.1 0.3
v -0.8 0.1 0.2
v -0.8 0.6 0.2
v -0.7 0.1 0.2
v -0.7 0.6 0.2
v 0.1 0.5 0.2
v 0.1 0.6 0.2
v 0.3 0.5 0.2
v 0.3 0.6 0.2
v -0.6 0 -0.2
v -0.6 0.1 -0.2
v 0 0 -0.2
v 0 0.1 -0.2
v 0.3 0 -0.2
v 0.3 0.1 -0.2
v 0.3 0.5 -0.2
v 0.4 0.4 -0.2
v 0.4 0.5 -0.2
v 0.5 0.3 -0.2
v 0.5 0.4 -0.2
v 0.7 0.2 -0.2
v 0.7 0.3 -0.2
v 0.7 0.4 -0.2
v 0.7 0.5 -0.2
v 0.8 0 -0.2
v 0.8 0.2 -0.2
v 0.8 0.4 -0.2
v -0.8 0.1 -0.3
v -0.8 0.5 -0.3
v -0.7 0.1 -0.3
v -0.7 0.3 -0.3
v -0.7 0.4 -0.3
v -0.7 0.5 -0.3
v 0.2 0.1 -0.3
v 0.2 0.3 -0.3
v 0.2 0.4 -0.3
v 0.2 0.5 -0.3
v 0.3 0.1 -0.3
v 0.3 0.5 -0.3
v -0.8 0.5 -0.7
v -0.8 0.6 -0.7
v 0.3 0.5 -0.7
v 0.3 0.6 -0.7
v -0.8 0 -0.8
v -0.8 0.5 -0.8
v 0.3 0 -0.8
v 0.3 0.5 -0.8
v -0.8 0 0.8
v 0.3 0 0.8
v -0.8 0 0.3
v 0.3 0 0.3
v -0.6 0 0.2
v 0 0 0.2
v 0.3 0 0.2
v 0.8 0 0.2
v -0.6 0 -0.2
v 0 0 -0.2
v 0.3 0 -0.2
v 0.8 0 -0.2
v -0.8 0 -0.3
v 0.3 0 -0.3
v -0.8 0 -0.8
v 0.3 0 -0.8
v -0.8 0.1 0.3
v 0.3 0.1 0.3
v -0.8 0.1 0.2
v -0.7 0.1 0.2
v -0.6 0.1 0.2
v 0 0.1 0.2
v 0.3 0.1 0.2
v -0.8 0.1 -0.2
v -0.7 0.1 -0.2
v -0.6 0.1 -0.2
v 0 0.1 -0.2
v 0.3 0.1 -0.2
v -0.8 0.1 -0.3
v 0.3 0.1 -0.3
v -0.8 0.5 0.7
v -0.7 0.5 0.7
v 0.2 0.5 0.7
v 0.3 0.5 0.7
v -0.8 0.5 0.3
v -0.7 0.5 0.3
v 0.2 0.5 0.3
v 0.3 0.5 0.3
v -0.8 0.5 -0.3
v -0.7 0.5 -0.3
v 0.2 0.5 -0.3
v 0.3 0.5 -0.3
v -0.8 0.5 -0.7
v -0.7 0.5 -0.7
v 0.2 0.5 -0.7
v 0.3 0.5 -0.7
v -0.8 0.1 0.7
v -0.7 0.1 0.7
v 0.2 0.1 0.7
v 0.3 0.1 0.7
v -0.7 0.1 0.6
v 0.2 0.1 0.6
v -0.7 0.1 0.5
v 0.2 0.1 0.5
v -0.8 0.1 0.3
v -0.7 0.1 0.3
v 0.2 0.1 0.3
v 0.3 0.1 0.3
v -0.8 0.1 -0.3
v -0.7 0.1 -0.3
v 0.2 0.1 -0.3
v 0.3 0.1 -0.3
v -0.7 0.1 -0.5
v 0.2 0.1 -0.5
v -0.7 0.1 -0.6
v 0.2 0.1 -0.6
v -0.8 0.1 -0.7
v -0.7 0.1 -0.7
v 0.2 0.1 -0.7
v 0.3 0.1 -0.7
v 0.7 0.4 0.2
v 0.8 0.4 0.2
v 0.7 0.4 -0.2
v 0.8 0.4 -0.2
v -0.8 0.5 0.8
v 0.3 0.5 0.8
v -0.8 0.5 0.7
v 0.3 0.5 0.7
v 0.1 0.5 0.2
v 0.3 0.5 0.2
v 0.4 0.5 0.2
v 0.7 0.5 0.2
v 0.1 0.5 -0.2
v 0.3 0.5 -0.2
v 0.4 0.5 -0.2
v 0.7 0.5 -0.2
v -0.8 0.5 -0.7
v 0.3 0.5 -0.7
v -0.8 0.5 -0.8
v 0.3 0.5 -0.8
v -0.8 0.6 0.7
v 0.3 0.6 0.7
v -0.8 0.6 0.2
v -0.7 0.6 0.2
v 0.1 0.6 0.2
v 0.3 0.6 0.2
v -0.8 0.6 -0.2
v -0.7 0.6 -0.2
v 0.1 0.6 -0.2
v 0.3 0.6 -0.2
v -0.8 0.6 -0.7
v 0.3 0.6 -0.7

# faces
f 5/5/1 2/5/1 1/5/1
f 6/5/1 2/5/1 5/5/1
f 9/5/1 4/5/1 3/5/1
f 10/5/1 4/5/1 9/5/1
f 11/5/1 5/5/1 1/5/1
f 12/5/1 5/5/1 11/5/1
f 13/5/1 7/5/1 6/5/1
f 14/5/1 9/5/1 8/5/1
f 15/5/1 4/5/1 10/5/1
f 16/5/1 4/5/1 15/5/1
f 17/5/1 13/5/1 12/5/1
f 18/5/1 7/5/1 13/5/1
f 18/5/1 13/5/1 17/5/1
f 19/5/1 14/5/1 8/5/1
f 19/5/1 15/5/1 14/5/1
f 20/5/1 15/5/1 19/5/1
f 31/2/1 23/2/1 22/2/1
f 31/3/1 24/3/1 23/3/1
f 32/3/1 24/3/1 31/3/1
f 33/3/1 28/3/1 27/3/1
f 34/2/1 29/2/1 28/2/1
f 34/3/1 28/3/1 33/3/1
f 35/1/1 22/1/1 21/1/1
f 35/2/1 32/2/1 31/2/1
f 35/2/1 31/2/1 22/2/1
f 36/2/1 32/2/1 35/2/1
f 37/2/1 34/2/1 33/2/1
f 38/2/1 29/2/1 34/2/1
f 38/2/1 34/2/1 37/2/1
f 38/1/1 30/1/1 29/1/1
f 39/1/1 35/1/1 21/1/1
f 39/1/1 36/1/1 35/1/1
f 40/1/1 36/1/1 39/1/1
f 41/1/1 38/1/1 37/1/1
f 42/1/1 30/1/1 38/1/1
f 42/1/1 38/1/1 41/1/1
f 43/5/1 26/5/1 25/5/1
f 44/5/1 26/5/1 43/5/1
f 47/5/1 46/5/1 45/5/1
f 48/5/1 46/5/1 47/5/1
f 51/5/1 50/5/1 49/5/1
f 52/5/1 50/5/1 51/5/1
f 53/5/2 54/5/2 55/5/2
f 55/5/2 54/5/2 56/5/2
f 57/5/2 58/5/2 59/5/2
f 59/5/2 58/5/2 60/5/2
f 62/2/2 63/2/2 69/2/2
f 63/3/2 64/3/2 69/3/2
f 69/3/2 64/3/2 70/3/2
f 65/3/2 66/3/2 71/3/2
f 66/2/2 67/2/2 72/2/2
f 71/3/2 66/3/2 72/3/2
f 61/1/2 62/1/2 73/1/2
f 69/2/2 70/2/2 73/2/2
f 62/2/2 69/2/2 73/2/2
f 73/2/2 70/2/2 74/2/2
f 71/2/2 72/2/2 75/2/2
f 72/2/2 67/2/2 76/2/2
f 75/2/2 72/2/2 76/2/2
f 67/1/2 68/1/2 76/1/2
f 61/1/2 73/1/2 77/1/2
f 73/1/2 74/1/2 77/1/2
f 77/1/2 74/1/2 78/1/2
f 75/1/2 76/1/2 79/1/2
f 76/1/2 68/1/2 80/1/2
f 79/1/2 76/1/2 80/1/2
f 81/5/2 82/5/2 85/5/2
f 85/5/2 82/5/2 86/5/2
f 83/5/2 84/5/2 89/5/2
f 89/5/2 84/5/2 90/5/2
f 81/5/2 85/5/2 91/5/2
f 91/5/2 85/5/2 92/5/2
f 86/5/2 87/5/2 93/5/2
f 93/5/2 87/5/2 94/5/2
f 88/5/2 89/5/2 95/5/2
f 95/5/2 89/5/2 96/5/2
f 90/5/2 84/5/2 97/5/2
f 97/5/2 84/5/2 98/5/2
f 93/5/2 94/5/2 99/5/2
f 92/5/2 93/5/2 99/5/2
f 99/5/2 94/5/2 100/5/2
f 95/5/2 96/5/2 101/5/2
f 96/5/2 97/5/2 101/5/2
f 101/5/2 97/5/2 102/5/2
f 103/4/2 104/4/2 105/4/2
f 105/4/2 104/4/2 106/4/2
f 107/5/2 108/5/2 109/5/2
f 109/5/2 108/5/2 110/5/2
f 109/4/2 110/4/2 111/4/2
f 111/4/2 110/4/2 112/4/2
f 115/5/3 114/5/3 113/5/3
f 116/5/3 114/5/3 115/5/3
f 119/5/3 118/5/3 117/5/3
f 120/5/3 118/5/3 119/5/3
f 123/5/3 122/5/3 121/5/3
f 124/5/3 122/5/3 123/5/3
f 125/5/3 122/5/3 124/5/3
f 126/5/3 122/5/3 125/5/3
f 131/5/3 128/5/3 127/5/3
f 131/5/3 130/5/3 129/5/3
f 131/5/3 129/5/3 128/5/3
f 132/5/3 130/5/3 131/5/3
f 135/5/3 134/5/3 133/5/3
f 136/5/3 134/5/3 135/5/3
f 140/5/3 138/5/3 137/5/3
f 140/5/3 139/5/3 138/5/3
f 141/5/3 139/5/3 140/5/3
f 142/5/3 140/5/3 137/5/3
f 143/4/3 141/4/3 140/4/3
f 143/5/3 140/5/3 142/5/3
f 144/5/3 142/5/3 137/5/3
f 145/4/3 143/4/3 142/4/3
f 145/5/3 142/5/3 144/5/3
f 146/4/3 141/4/3 143/4/3
f 146/4/3 143/4/3 145/4/3
f 147/4/3 141/4/3 146/4/3
f 148/5/3 144/5/3 137/5/3
f 149/4/3 145/4/3 144/4/3
f 149/5/3 144/5/3 148/5/3
f 149/4/3 146/4/3 145/4/3
f 150/4/3 146/4/3 149/4/3
f 153/5/3 152/5/3 151/5/3
f 154/5/3 152/5/3 153/5/3
f 157/5/3 156/5/3 155/5/3
f 158/5/3 156/5/3 157/5/3
f 161/5/3 160/5/3 159/5/3
f 162/5/3 160/5/3 161/5/3
f 165/5/3 164/5/3 163/5/3
f 166/5/3 164/5/3 165/5/3
f 169/5/3 168/5/3 167/5/3
f 170/5/3 168/5/3 169/5/3
f 171/5/4 172/5/4 173/5/4
f 173/5/4 172/5/4 174/5/4
f 175/5/4 176/5/4 177/5/4
f 177/5/4 176/5/4 178/5/4
f 179/5/4 180/5/4 181/5/4
f 181/5/4 180/5/4 182/5/4
f 183/5/4 184/5/4 185/5/4
f 185/5/4 184/5/4 186/5/4
f 187/5/4 188/5/4 189/5/4
f 189/5/4 188/5/4 190/5/4
f 191/5/4 192/5/4 193/5/4
f 193/5/4 192/5/4 194/5/4
f 195/5/4 196/5/4 198/5/4
f 196/5/4 197/5/4 198/5/4
f 198/5/4 197/5/4 199/5/4
f 195/5/4 198/5/4 200/5/4
f 198/4/4 199/4/4 201/4/4
f 200/5/4 198/5/4 201/5/4
f 195/5/4 200/5/4 202/5/4
f 200/4/4 201/4/4 203/4/4
f 202/5/4 200/5/4 203/5/4
f 201/4/4 199/4/4 204/4/4
f 203/4/4 201/4/4 204/4/4
f 204/4/4 199/4/4 205/4/4
f 195/5/4 202/5/4 206/5/4
f 202/4/4 203/4/4 207/4/4
f 206/5/4 202/5/4 207/5/4
f 203/4/4 204/4/4 207/4/4
f 207/4/4 204/4/4 208/4/4
f 209/5/4 210/5/4 211/5/4
f 211/5/4 210/5/4 212/5/4
f 212/5/4 210/5/4 213/5/4
f 213/5/4 210/5/4 214/5/4
f 215/5/4 216/5/4 219/5/4
f 217/5/4 218/5/4 219/5/4
f 216/5/4 217/5/4 219/5/4
f 219/5/4 218/5/4 220/5/4
f 221/5/4 222/5/4 223/5/4
f 223/5/4 222/5/4 224/5/4
f 225/5/4 226/5/4 227/5/4
f 227/5/4 226/5/4 228/5/4
f 231/5/5 230/5/5 229/5/5
f 232/5/5 230/5/5 231/5/5
f 237/5/5 234/5/5 233/5/5
f 238/5/5 234/5/5 237/5/5
f 239/5/5 236/5/5 235/5/5
f 240/5/5 236/5/5 239/5/5
f 243/5/5 242/5/5 241/5/5
f 244/5/5 242/5/5 243/5/5
f 247/5/5 246/5/5 245/5/5
f 248/5/5 246/5/5 247/5/5
f 249/5/5 246/5/5 248/5/5
f 250/5/5 246/5/5 249/5/5
f 251/5/5 246/5/5 250/5/5
f 253/5/5 249/5/5 248/5/5
f 254/5/5 249/5/5 253/5/5
f 255/5/5 251/5/5 250/5/5
f 256/5/5 251/5/5 255/5/5
f 257/5/5 254/5/5 253/5/5
f 257/5/5 253/5/5 252/5/5
f 257/5/5 256/5/5 255/5/5
f 257/5/5 255/5/5 254/5/5
f 258/5/5 256/5/5 257/5/5
f 263/5/5 260/5/5 259/5/5
f 264/5/5 260/5/5 263/5/5
f 265/5/5 262/5/5 261/5/5
f 266/5/5 262/5/5 265/5/5
f 271/5/5 268/5/5 267/5/5
f 272/5/5 268/5/5 271/5/5
f 273/5/5 270/5/5 269/5/5
f 274/5/5 270/5/5 273/5/5
f 275/5/6 276/5/6 279/5/6
f 277/5/6 278/5/6 280/5/6
f 275/5/6 279/5/6 281/5/6
f 280/5/6 278/5/6 282/5/6
f 275/5/6 281/5/6 283/5/6
f 283/5/6 281/5/6 284/5/6
f 282/5/6 278/5/6 285/5/6
f 285/5/6 278/5/6 286/5/6
f 287/5/6 288/5/6 291/5/6
f 289/5/6 290/5/6 292/5/6
f 287/5/6 291/5/6 293/5/6
f 292/5/6 290/5/6 294/5/6
f 287/5/6 293/5/6 295/5/6
f 295/5/6 293/5/6 296/5/6
f 294/5/6 290/5/6 297/5/6
f 297/5/6 290/5/6 298/5/6
f 299/4/6 300/4/6 301/4/6
f 301/4/6 300/4/6 302/4/6
f 303/5/6 304/5/6 305/5/6
f 305/5/6 304/5/6 306/5/6
f 307/5/6 308/5/6 311/5/6
f 308/5/6 309/5/6 311/5/6
f 311/5/6 309/5/6 312/5/6
f 309/4/6 310/4/6 313/4/6
f 312/5/6 309/5/6 313/5/6
f 313/4/6 310/4/6 314/4/6
f 315/5/6 316/5/6 317/5/6
f 317/5/6 316/5/6 318/5/6
f 319/5/6 320/5/6 321/5/6
f 321/5/6 320/5/6 322/5/6
f 322/5/6 320/5/6 323/5/6
f 323/5/6 320/5/6 324/5/6
f 322/5/6 323/5/6 326/5/6
f 326/5/6 323/5/6 327/5/6
f 325/5/6 326/5/6 329/5/6
f 327/5/6 328/5/6 329/5/6
f 326/5/6 327/5/6 329/5/6
f 329/5/6 328/5/6 330/5/6
